<svg xmlns="http://www.w3.org/2000/svg" version="1.1" xmlns:xlink="http://www.w3.org/1999/xlink" viewBox="0 0 11.904212238510148 5.134483859266847"><g transform="matrix(0.7833673999438852,0,0,0.7833673999438852,5.788266758648266,1.8736239534918595)"><g transform="matrix(1,0,0,1,0,0)" clip-path="url(#SvgjsClipPath1398)"><g clip-path="url(#SvgjsClipPath1396834510b4-8c30-4c8e-957f-477aacd6c768)"><path d=" M -4.769498365544709 0.6644520410688692 L -2.988032169636958 0.0970348429081398 L -2.988032169636958 1.56838088781718 L -4.77278727557858 1.8817899488497623 Z" fill="#3682ae" transform="matrix(1,0,0,1,0,0)" fill-rule="nonzero"></path></g><g clip-path="url(#SvgjsClipPath1396834510b4-8c30-4c8e-957f-477aacd6c768)"><path d=" M -2.1500554639240956 -0.9718650088927157 L -2.1500554639240956 1.931279943201008 L -0.6456999926994911 2.5712938140606076 L -0.6456999926994911 0.1696274248143852 Z" fill="#3682ae" transform="matrix(1,0,0,1,0,0)" fill-rule="nonzero"></path></g><g clip-path="url(#a24208d97-f7ec-4d6d-949f-58ec5886508f834510b4-8c30-4c8e-957f-477aacd6c768)"><path d=" M -2.3260795211182685 -0.7563117892159906 C -2.3035785634475134 -0.7650955855259645 -2.2791523901471757 -0.7603627637699055 -2.2617452321630265 -0.7460840811838293 L -0.8601481451674315 0.28956160155513944 C -0.8430189094130851 0.30223347527861466 -0.8332960526251156 0.3225808448163432 -0.8341978428270069 0.34386872577296845 L -0.8339170822143593 1.106976070949051 L -0.4325898407641402 1.336116839528414 C -0.41077073029552835 1.348550523802806 -0.3989386759053817 1.3717734373346544 -0.4001018270149208 1.3952771114791505 L -0.4008237828760146 2.312762684952444 C -0.40082204581008796 2.334532504380376 -0.41184342177141353 2.354822608993436 -0.43010635819638576 2.3666712457959678 C -0.448369294621358 2.3785198825984986 -0.4713896183301216 2.3803153685030836 -0.491268808807507 2.371441652995773 L -0.8335561042838124 2.2178655978775668 L -0.8333956696480138 2.678192676642725 C -0.8333956696480138 2.7136888398131678 -0.862193686773864 2.7424467482800687 -0.8976497412853561 2.7424467482800687 L -0.8976497412853561 2.7427275088927154 L -1.8937883949589178 2.7427275088927154 C -1.9294048841062086 2.7427275088927154 -1.958283118549958 2.7138091657900163 -1.958283118549958 2.678192676642726 L -1.958283118549958 1.7132585596319938 L -2.2440974222251797 1.5850311769699554 C -2.2440974222251797 1.5850311769699554 -2.311479969260595 1.552462945902838 -2.3343820135208464 1.5429170850728213 C -2.3693567641249436 1.5283175332151475 -2.381028383879292 1.4947866943332384 -2.3672711138595615 1.4594509657985948 C -2.3603250920269634 1.443877479452722 -2.347476881956844 1.4317012380297465 -2.3315530710602803 1.425600996821852 C -2.3156292601637167 1.419500755613957 -2.2979343096963776 1.4199762397408162 -2.2823610828631478 1.4269228433904266 L -1.958283118549958 1.572316732082916 L -1.958283118549958 0.5759374264556569 C -1.958295186882375 0.5520591289008154 -1.9451132964873001 0.5301282210890734 -1.9240209911090473 0.5189350136134454 C -1.9029286857307945 0.5077418061378174 -1.8773781025755976 0.5091182698185028 -1.8576103845863265 0.5225126927347232 L -0.9624653341479936 1.0336173337301378 L -0.9627059861016916 0.37370956803151056 L -2.3121217078037897 -0.6233916934568433 L -2.5952487313293844 -0.5118495129178606 L -2.5976552508663633 0.3648856630625863 C -2.5976552508663633 0.394084766777933 -2.617148059115894 0.41871148337301944 -2.643820317317413 0.42653267186820165 L -2.6437802086584634 0.42661288918610074 L -4.387343721858793 0.9431321991397215 L -4.387343721858793 1.9419180243039595 L -2.6760275704539835 1.6582695882120198 C -2.656797070863388 1.6551430253075727 -2.6371856738508206 1.660899519739821 -2.622695933729403 1.67392391766499 C -2.6082061936079857 1.6869483155901586 -2.600399251061215 1.7058373539194247 -2.60146557346658 1.7252911573168879 L -2.6040726362983078 2.6781926766427246 C -2.6040726362983078 2.713688839813167 -2.632870653424158 2.742446748280068 -2.66832670793565 2.742446748280068 L -2.66832670793565 2.7427275088927154 L -4.451838445449834 2.7427275088927154 C -4.487454934597125 2.7427275088927154 -4.516333169040874 2.7138091657900163 -4.516333169040874 2.678192676642725 L -4.516333169040874 2.093689189769444 L -4.958410807983941 2.166967709670459 L -4.958410807983941 2.1669276010115093 C -4.977020575004685 2.1699643226499523 -4.996024932098161 2.164673468625233 -5.010388175199018 2.152456989815795 C -5.024751418299874 2.1402405110063567 -5.03302364583528 2.1223316032660806 -5.0330129136302935 2.103475702553159 L -5.032611827040797 1.0517464475753804 C -5.03428660828968 1.0218954790131267 -5.01517599116329 0.9948248744053976 -4.986486869248696 0.9864094421463967 L -4.516333169040874 0.8471521782732045 L -4.516333169040874 0.150504880976696 C -4.516333169040874 0.12178708116874493 -4.497562316652436 0.0974411251863061 -4.471571905653062 0.08909852412477859 L -3.193589705540295 -0.4145057976470541 L -2.7235162226503715 -0.5997275846765477 Z M -2.7260430681642 0.31679538098195303 L -2.723877200580919 -0.4611521680055003 L -4.387343721858793 0.19430353654971522 L -4.387343721858793 0.8088885176352358 Z M -4.516333169040875 0.9813557511187398 L -4.904103683766112 1.0962269503505437 L -4.904464661696658 2.0276302284793664 L -4.516333169040875 1.9632959395241243 Z M -2.7301742600360144 1.797647178062061 L -4.387343721858793 2.0723112745492793 L -4.387343721858793 2.6136979530516844 L -2.7324203449371947 2.6136979530516844 Z M -0.8338769735554088 1.2551374571090657 L -0.8335962129427612 2.076923770328489 L -0.5292517088328008 2.2134937540520543 L -0.5286500789485569 1.429449688904254 Z M -0.9619439215816481 2.6136979530516835 L -0.9621043562174467 2.1602294549669163 L -1.8292936713678767 1.7711353544963409 L -1.8292936713678767 2.6136979530516835 Z M -0.9621444648763964 2.0192475187588887 L -0.962425225489044 1.181778719890152 L -1.8292936713678767 0.686837868451444 L -1.8292936713678767 1.630193526947263 Z" fill="#102036" transform="matrix(1,0,0,1,0,0)" fill-rule="nonzero"></path></g></g><g><path d=" M 0.063 0.8865 L 0.063 -1.1102230246251565e-16 L 0.378 -1.1102230246251565e-16 Q 0.462 -1.1102230246251565e-16 0.50625 0.03974999999999995 Q 0.5505 0.0794999999999999 0.5505 0.1499999999999999 L 0.5505 0.25049999999999994 Q 0.5505 0.2895 0.53925 0.32175 Q 0.528 0.354 0.5055000000000001 0.37649999999999995 Q 0.489 0.39299999999999996 0.4635 0.40199999999999997 Q 0.438 0.4109999999999999 0.41400000000000003 0.4124999999999999 L 0.41400000000000003 0.4139999999999999 Q 0.4395 0.4139999999999999 0.4635 0.41999999999999993 Q 0.4875 0.42599999999999993 0.5085000000000001 0.44399999999999995 Q 0.534 0.46349999999999997 0.549 0.49724999999999997 Q 0.5640000000000001 0.5309999999999999 0.5640000000000001 0.5805 L 0.5640000000000001 0.702 Q 0.5640000000000001 0.7739999999999999 0.53925 0.8145 Q 0.5145 0.855 0.46875 0.8707499999999999 Q 0.423 0.8865 0.36 0.8865 L 0.063 0.8865 M 0.23850000000000002 0.7949999999999999 L 0.3195 0.7949999999999999 Q 0.342 0.7949999999999999 0.35625 0.78675 Q 0.3705 0.7785 0.37875000000000003 0.756 Q 0.387 0.7334999999999999 0.387 0.69 L 0.387 0.585 Q 0.387 0.5249999999999999 0.36675 0.5062499999999999 Q 0.34650000000000003 0.48749999999999993 0.3135 0.48749999999999993 L 0.23850000000000002 0.48749999999999993 L 0.23850000000000002 0.7949999999999999 M 0.23850000000000002 0.3779999999999999 L 0.309 0.3779999999999999 Q 0.3435 0.3779999999999999 0.36375 0.354 Q 0.384 0.32999999999999996 0.384 0.2699999999999999 L 0.384 0.1815 Q 0.384 0.1349999999999999 0.36675 0.11474999999999991 Q 0.34950000000000003 0.09449999999999992 0.3225 0.09449999999999992 L 0.23850000000000002 0.09449999999999992 L 0.23850000000000002 0.3779999999999999 M 0.6720087890625 0.8865 L 0.6720087890625 -1.1102230246251565e-16 L 0.8895087890625 -1.1102230246251565e-16 L 1.0110087890625001 0.573 L 1.1340087890625 -1.1102230246251565e-16 L 1.3500087890625 -1.1102230246251565e-16 L 1.3500087890625 0.8865 L 1.1970087890625 0.8865 L 1.1970087890625 0.22349999999999992 L 1.0695087890625001 0.8865 L 0.9510087890625001 0.8865 L 0.8250087890625 0.22349999999999992 L 0.8250087890625 0.8865 L 0.6720087890625 0.8865 M 1.47602490234375 0.8865 L 1.47602490234375 -1.1102230246251565e-16 L 1.69352490234375 -1.1102230246251565e-16 L 1.8150249023437501 0.573 L 1.93802490234375 -1.1102230246251565e-16 L 2.15402490234375 -1.1102230246251565e-16 L 2.15402490234375 0.8865 L 2.00102490234375 0.8865 L 2.00102490234375 0.22349999999999992 L 1.8735249023437501 0.8865 L 1.75502490234375 0.8865 L 1.62902490234375 0.22349999999999992 L 1.62902490234375 0.8865 L 1.47602490234375 0.8865" fill="#102036" fill-rule="nonzero"></path></g><g><path d=" M 0.04875 1.2563625000000003 L 0.24375 1.2563625000000003 Q 0.3015 1.2563625000000003 0.339 1.2912375000000003 Q 0.3765 1.3261125000000002 0.3765 1.3823625000000002 Q 0.3765 1.4251125000000002 0.354375 1.4569875000000003 Q 0.33225 1.4888625000000002 0.29775 1.5008625000000002 L 0.29775 1.5038625000000003 Q 0.3375 1.5158625000000003 0.363 1.5511125000000003 Q 0.3885 1.5863625000000003 0.3885 1.6343625000000002 Q 0.3885 1.6763625000000002 0.369 1.7071125000000003 Q 0.34950000000000003 1.7378625000000003 0.3165 1.7543625000000003 Q 0.28350000000000003 1.7708625000000002 0.24375 1.7708625000000002 L 0.04875 1.7708625000000002 L 0.04875 1.2563625000000003 M 0.22425 1.4776125000000002 Q 0.261 1.4776125000000002 0.28425 1.4539875000000002 Q 0.3075 1.4303625000000002 0.3075 1.3966125000000003 Q 0.3075 1.3568625 0.28650000000000003 1.3366125000000002 Q 0.2655 1.3163625000000003 0.22875 1.3163625000000003 L 0.11475 1.3163625000000003 L 0.11475 1.4776125000000002 L 0.22425 1.4776125000000002 M 0.23475000000000001 1.7108625000000002 Q 0.27225 1.7108625000000002 0.295875 1.6883625000000002 Q 0.3195 1.6658625000000002 0.3195 1.6253625000000003 Q 0.3195 1.5893625000000002 0.29475 1.5634875000000001 Q 0.27 1.5376125000000003 0.23025 1.5376125000000003 L 0.11475 1.5376125000000003 L 0.11475 1.7108625000000002 L 0.23475000000000001 1.7108625000000002 M 0.4769978027343749 1.7292375000000002 Q 0.44137280273437496 1.6786125000000003 0.44137280273437496 1.5736125000000003 Q 0.44137280273437496 1.4686125000000003 0.4769978027343749 1.4179875000000002 Q 0.5126228027343749 1.3673625000000003 0.582372802734375 1.3673625000000003 Q 0.652122802734375 1.3673625000000003 0.6877478027343749 1.4179875000000002 Q 0.7233728027343749 1.4686125000000003 0.7233728027343749 1.5736125000000003 Q 0.7233728027343749 1.6786125000000003 0.6877478027343749 1.7292375000000002 Q 0.652122802734375 1.7798625000000001 0.582372802734375 1.7798625000000001 Q 0.5126228027343749 1.7798625000000001 0.4769978027343749 1.7292375000000002 M 0.6588728027343749 1.5878625000000002 L 0.6588728027343749 1.5593625000000002 Q 0.6588728027343749 1.4221125000000003 0.582372802734375 1.4221125000000003 Q 0.505872802734375 1.4221125000000003 0.505872802734375 1.5593625000000002 L 0.505872802734375 1.5878625000000002 Q 0.505872802734375 1.7251125000000003 0.582372802734375 1.7251125000000003 Q 0.6588728027343749 1.7251125000000003 0.6588728027343749 1.5878625000000002 M 0.8737430419921874 1.5713625000000002 L 0.7642430419921875 1.3763625000000002 L 0.8384930419921874 1.3763625000000002 L 0.9089930419921874 1.5113625000000002 L 0.9097430419921875 1.5113625000000002 L 0.9832430419921875 1.3763625000000002 L 1.0522430419921875 1.3763625000000002 L 0.9419930419921875 1.5661125000000002 L 1.0574930419921875 1.7708625000000002 L 0.9832430419921875 1.7708625000000002 L 0.9067430419921875 1.6268625 L 0.9059930419921874 1.6268625 L 0.8264930419921874 1.7708625000000002 L 0.7589930419921874 1.7708625000000002 L 0.8737430419921874 1.5713625000000002 M 1.281743408203125 1.2563625000000003 L 1.382243408203125 1.2563625000000003 L 1.4729934082031249 1.5938625000000002 Q 1.4789934082031249 1.6171125000000002 1.483868408203125 1.6568625000000001 Q 1.488743408203125 1.6966125000000003 1.490243408203125 1.7093625000000001 L 1.493243408203125 1.7093625000000001 Q 1.493993408203125 1.6966125000000003 1.498868408203125 1.6564875000000003 Q 1.503743408203125 1.6163625000000001 1.509743408203125 1.5938625000000002 L 1.6012434082031248 1.2563625000000003 L 1.700993408203125 1.2563625000000003 L 1.700993408203125 1.7708625000000002 L 1.634993408203125 1.7708625000000002 L 1.634993408203125 1.3973625000000003 Q 1.634993408203125 1.3861125000000003 1.6372434082031249 1.3568625 Q 1.639493408203125 1.3276125000000003 1.640243408203125 1.3178625000000002 L 1.6372434082031249 1.3178625000000002 Q 1.634993408203125 1.3276125000000003 1.628993408203125 1.3568625 Q 1.622993408203125 1.3861125000000003 1.6199934082031249 1.3973625000000003 L 1.517243408203125 1.7708625000000002 L 1.457993408203125 1.7708625000000002 L 1.3552434082031248 1.3973625000000003 Q 1.3507434082031249 1.3786125000000002 1.346243408203125 1.3534875000000002 Q 1.341743408203125 1.3283625000000003 1.339493408203125 1.3178625000000002 L 1.336493408203125 1.3178625000000002 Q 1.337243408203125 1.3283625000000003 1.3387434082031249 1.3534875000000002 Q 1.340243408203125 1.3786125000000002 1.340993408203125 1.3973625000000003 L 1.340993408203125 1.7708625000000002 L 1.281743408203125 1.7708625000000002 L 1.281743408203125 1.2563625000000003 M 1.8142309570312498 1.7292375000000002 Q 1.7786059570312498 1.6786125000000003 1.7786059570312498 1.5736125000000003 Q 1.7786059570312498 1.4686125000000003 1.8142309570312498 1.4179875000000002 Q 1.8498559570312498 1.3673625000000003 1.9196059570312498 1.3673625000000003 Q 1.9893559570312498 1.3673625000000003 2.0249809570312496 1.4179875000000002 Q 2.0606059570312496 1.4686125000000003 2.0606059570312496 1.5736125000000003 Q 2.0606059570312496 1.6786125000000003 2.0249809570312496 1.7292375000000002 Q 1.9893559570312498 1.7798625000000001 1.9196059570312498 1.7798625000000001 Q 1.8498559570312498 1.7798625000000001 1.8142309570312498 1.7292375000000002 M 1.9961059570312498 1.5878625000000002 L 1.9961059570312498 1.5593625000000002 Q 1.9961059570312498 1.4221125000000003 1.9196059570312498 1.4221125000000003 Q 1.8431059570312498 1.4221125000000003 1.8431059570312498 1.5593625000000002 L 1.8431059570312498 1.5878625000000002 Q 1.8431059570312498 1.7251125000000003 1.9196059570312498 1.7251125000000003 Q 1.9961059570312498 1.7251125000000003 1.9961059570312498 1.5878625000000002 M 2.1536011962890624 1.7288625000000002 Q 2.121726196289062 1.6778625000000003 2.121726196289062 1.5728625000000003 Q 2.121726196289062 1.4708625000000002 2.1543511962890625 1.4191125000000002 Q 2.1869761962890624 1.3673625000000003 2.239476196289062 1.3673625000000003 Q 2.2687261962890624 1.3673625000000003 2.2912261962890623 1.3797375000000003 Q 2.3137261962890623 1.3921125 2.323476196289062 1.4138625000000002 L 2.3272261962890624 1.4138625000000002 L 2.3272261962890624 1.2286125 L 2.3887261962890625 1.2286125 L 2.3887261962890625 1.7708625000000002 L 2.3422261962890625 1.7708625000000002 L 2.333976196289062 1.7251125000000003 L 2.3302261962890625 1.7251125000000003 Q 2.3159761962890624 1.7521125000000002 2.2934761962890624 1.7659875000000003 Q 2.2709761962890624 1.7798625000000001 2.2439761962890623 1.7798625000000001 Q 2.1854761962890623 1.7798625000000001 2.1536011962890624 1.7288625000000002 M 2.3272261962890624 1.5878625000000002 L 2.3272261962890624 1.5623625000000003 Q 2.3272261962890624 1.4221125000000003 2.2567261962890623 1.4221125000000003 Q 2.2207261962890623 1.4221125000000003 2.203476196289062 1.4543625000000002 Q 2.1862261962890623 1.4866125000000001 2.1862261962890623 1.5593625000000002 L 2.1862261962890623 1.5878625000000002 Q 2.1862261962890623 1.6606125000000003 2.203476196289062 1.6928625000000002 Q 2.2207261962890623 1.7251125000000003 2.2567261962890623 1.7251125000000003 Q 2.3272261962890624 1.7251125000000003 2.3272261962890624 1.5878625000000002 M 2.503471435546875 1.7307375000000003 Q 2.4663464355468747 1.6816125000000002 2.4663464355468747 1.5736125000000003 Q 2.4663464355468747 1.4678625000000003 2.5030964355468748 1.4176125000000002 Q 2.539846435546875 1.3673625000000003 2.614846435546875 1.3673625000000003 Q 2.680846435546875 1.3673625000000003 2.7127214355468747 1.4112375000000001 Q 2.744596435546875 1.4551125000000003 2.744596435546875 1.5526125000000002 L 2.744596435546875 1.5916125000000003 L 2.530846435546875 1.5916125000000003 Q 2.531596435546875 1.6606125000000003 2.552221435546875 1.6928625000000002 Q 2.5728464355468748 1.7251125000000003 2.6170964355468747 1.7251125000000003 Q 2.647096435546875 1.7251125000000003 2.6654714355468747 1.7011125000000002 Q 2.683846435546875 1.6771125000000002 2.683846435546875 1.6366125000000002 L 2.744596435546875 1.6366125000000002 Q 2.744596435546875 1.7026125000000003 2.708971435546875 1.7412375000000002 Q 2.673346435546875 1.7798625000000001 2.615596435546875 1.7798625000000001 Q 2.540596435546875 1.7798625000000001 2.503471435546875 1.7307375000000003 M 2.680096435546875 1.5368625000000002 Q 2.680096435546875 1.4806125000000003 2.663596435546875 1.4513625 Q 2.647096435546875 1.4221125000000003 2.614846435546875 1.4221125000000003 Q 2.575096435546875 1.4221125000000003 2.555221435546875 1.4502375000000003 Q 2.5353464355468747 1.4783625000000002 2.531596435546875 1.5368625000000002 L 2.680096435546875 1.5368625000000002 M 2.8154666748046875 1.2286125 L 2.8769666748046876 1.2286125 L 2.8769666748046876 1.7708625000000002 L 2.8154666748046875 1.7708625000000002 L 2.8154666748046875 1.2286125 M 3.1342423095703125 1.2563625000000003 L 3.2347423095703123 1.2563625000000003 L 3.3254923095703126 1.5938625000000002 Q 3.3314923095703124 1.6171125000000002 3.3363673095703126 1.6568625000000001 Q 3.3412423095703123 1.6966125000000003 3.3427423095703124 1.7093625000000001 L 3.3457423095703125 1.7093625000000001 Q 3.3464923095703125 1.6966125000000003 3.3513673095703123 1.6564875000000003 Q 3.3562423095703124 1.6163625000000001 3.3622423095703127 1.5938625000000002 L 3.4537423095703126 1.2563625000000003 L 3.5534923095703124 1.2563625000000003 L 3.5534923095703124 1.7708625000000002 L 3.4874923095703125 1.7708625000000002 L 3.4874923095703125 1.3973625000000003 Q 3.4874923095703125 1.3861125000000003 3.4897423095703126 1.3568625 Q 3.4919923095703123 1.3276125000000003 3.4927423095703123 1.3178625000000002 L 3.4897423095703126 1.3178625000000002 Q 3.4874923095703125 1.3276125000000003 3.4814923095703123 1.3568625 Q 3.4754923095703125 1.3861125000000003 3.4724923095703124 1.3973625000000003 L 3.3697423095703125 1.7708625000000002 L 3.3104923095703125 1.7708625000000002 L 3.2077423095703126 1.3973625000000003 Q 3.2032423095703124 1.3786125000000002 3.1987423095703127 1.3534875000000002 Q 3.1942423095703125 1.3283625000000003 3.1919923095703124 1.3178625000000002 L 3.1889923095703123 1.3178625000000002 Q 3.1897423095703124 1.3283625000000003 3.1912423095703124 1.3534875000000002 Q 3.1927423095703125 1.3786125000000002 3.1934923095703125 1.3973625000000003 L 3.1934923095703125 1.7708625000000002 L 3.1342423095703125 1.7708625000000002 L 3.1342423095703125 1.2563625000000003 M 3.6712298583984375 1.7517375000000002 Q 3.6461048583984375 1.7236125000000002 3.6461048583984375 1.6606125000000003 L 3.6461048583984375 1.3763625000000002 L 3.7076048583984376 1.3763625000000002 L 3.7076048583984376 1.6561125000000003 Q 3.7076048583984376 1.6943625000000002 3.7218548583984377 1.7097375000000001 Q 3.7361048583984378 1.7251125000000003 3.7631048583984374 1.7251125000000003 Q 3.7938548583984377 1.7251125000000003 3.8152298583984376 1.6958625000000003 Q 3.8366048583984376 1.6666125000000003 3.8366048583984376 1.6171125000000002 L 3.8366048583984376 1.3763625000000002 L 3.8981048583984377 1.3763625000000002 L 3.8981048583984377 1.7708625000000002 L 3.8516048583984377 1.7708625000000002 L 3.8433548583984374 1.7251125000000003 L 3.8388548583984377 1.7251125000000003 Q 3.8081048583984374 1.7798625000000001 3.7436048583984376 1.7798625000000001 Q 3.6963548583984376 1.7798625000000001 3.6712298583984375 1.7517375000000002 M 4.00047509765625 1.7464875000000002 Q 3.96897509765625 1.7131125000000003 3.96897509765625 1.6643625000000002 Q 3.96897509765625 1.6553625000000003 3.96935009765625 1.6519875000000002 Q 3.96972509765625 1.6486125000000003 3.96972509765625 1.6478625000000002 L 4.03422509765625 1.6478625000000002 L 4.03422509765625 1.6553625000000003 Q 4.03422509765625 1.6906125000000003 4.05222509765625 1.7082375000000003 Q 4.07022509765625 1.7258625000000003 4.09872509765625 1.7258625000000003 Q 4.12422509765625 1.7258625000000003 4.14110009765625 1.7104875000000002 Q 4.15797509765625 1.6951125000000002 4.15797509765625 1.6673625000000003 Q 4.15797509765625 1.6463625000000002 4.14747509765625 1.6328625000000003 Q 4.13697509765625 1.6193625000000003 4.12197509765625 1.6114875000000002 Q 4.1069750976562505 1.6036125 4.07997509765625 1.5938625000000002 Q 4.04697509765625 1.5826125000000002 4.02672509765625 1.5713625000000002 Q 4.00647509765625 1.5601125000000002 3.99222509765625 1.5379875000000003 Q 3.97797509765625 1.5158625000000003 3.97797509765625 1.4798625000000003 Q 3.97797509765625 1.4281125000000001 4.01135009765625 1.3977375000000003 Q 4.04472509765625 1.3673625000000003 4.10097509765625 1.3673625000000003 Q 4.1542250976562505 1.3673625000000003 4.18422509765625 1.3984875000000003 Q 4.21422509765625 1.4296125000000002 4.21422509765625 1.4753625000000001 L 4.21347509765625 1.4896125000000002 L 4.14972509765625 1.4896125000000002 L 4.14972509765625 1.4828625000000002 Q 4.14972509765625 1.4566125000000003 4.13697509765625 1.4389875 Q 4.12422509765625 1.4213625000000003 4.09497509765625 1.4213625000000003 Q 4.06572509765625 1.4213625000000003 4.05372509765625 1.4378625000000003 Q 4.04172509765625 1.4543625000000002 4.04172509765625 1.4753625000000001 Q 4.04172509765625 1.5008625000000002 4.05935009765625 1.5132375000000002 Q 4.07697509765625 1.5256125000000003 4.11372509765625 1.5376125000000003 Q 4.14747509765625 1.5496125000000003 4.16922509765625 1.5612375000000003 Q 4.19097509765625 1.5728625000000003 4.20635009765625 1.5961125000000003 Q 4.22172509765625 1.6193625000000003 4.22172509765625 1.6583625000000002 Q 4.22172509765625 1.7191125000000003 4.18760009765625 1.7494875000000003 Q 4.1534750976562504 1.7798625000000001 4.09572509765625 1.7798625000000001 Q 4.03197509765625 1.7798625000000001 4.00047509765625 1.7464875000000002 M 4.321454956054687 1.7307375000000003 Q 4.2843299560546875 1.6816125000000002 4.2843299560546875 1.5736125000000003 Q 4.2843299560546875 1.4678625000000003 4.321079956054687 1.4176125000000002 Q 4.357829956054688 1.3673625000000003 4.432829956054687 1.3673625000000003 Q 4.498829956054687 1.3673625000000003 4.530704956054687 1.4112375000000001 Q 4.562579956054687 1.4551125000000003 4.562579956054687 1.5526125000000002 L 4.562579956054687 1.5916125000000003 L 4.348829956054687 1.5916125000000003 Q 4.349579956054687 1.6606125000000003 4.370204956054687 1.6928625000000002 Q 4.390829956054687 1.7251125000000003 4.435079956054687 1.7251125000000003 Q 4.465079956054687 1.7251125000000003 4.483454956054687 1.7011125000000002 Q 4.501829956054687 1.6771125000000002 4.501829956054687 1.6366125000000002 L 4.562579956054687 1.6366125000000002 Q 4.562579956054687 1.7026125000000003 4.526954956054687 1.7412375000000002 Q 4.491329956054687 1.7798625000000001 4.433579956054687 1.7798625000000001 Q 4.358579956054687 1.7798625000000001 4.321454956054687 1.7307375000000003 M 4.498079956054688 1.5368625000000002 Q 4.498079956054688 1.4806125000000003 4.481579956054687 1.4513625 Q 4.465079956054687 1.4221125000000003 4.432829956054687 1.4221125000000003 Q 4.393079956054687 1.4221125000000003 4.373204956054687 1.4502375000000003 Q 4.353329956054687 1.4783625000000002 4.349579956054687 1.5368625000000002 L 4.498079956054688 1.5368625000000002 M 4.6660751953125 1.7517375000000002 Q 4.6409501953125 1.7236125000000002 4.6409501953125 1.6606125000000003 L 4.6409501953125 1.3763625000000002 L 4.702450195312499 1.3763625000000002 L 4.702450195312499 1.6561125000000003 Q 4.702450195312499 1.6943625000000002 4.7167001953125 1.7097375000000001 Q 4.7309501953124995 1.7251125000000003 4.7579501953125 1.7251125000000003 Q 4.7887001953125 1.7251125000000003 4.8100751953125 1.6958625000000003 Q 4.8314501953125 1.6666125000000003 4.8314501953125 1.6171125000000002 L 4.8314501953125 1.3763625000000002 L 4.892950195312499 1.3763625000000002 L 4.892950195312499 1.7708625000000002 L 4.846450195312499 1.7708625000000002 L 4.8382001953125 1.7251125000000003 L 4.8337001953125 1.7251125000000003 Q 4.8029501953125 1.7798625000000001 4.7384501953125 1.7798625000000001 Q 4.6912001953125 1.7798625000000001 4.6660751953125 1.7517375000000002 M 4.984070434570312 1.3763625000000002 L 5.030570434570312 1.3763625000000002 L 5.0388204345703125 1.4221125000000003 L 5.043320434570313 1.4221125000000003 Q 5.072570434570312 1.3673625000000003 5.1333204345703125 1.3673625000000003 Q 5.197070434570312 1.3673625000000003 5.217320434570312 1.4243625000000002 Q 5.232320434570312 1.3966125000000003 5.258195434570312 1.3819875000000001 Q 5.284070434570312 1.3673625000000003 5.313320434570312 1.3673625000000003 Q 5.406320434570312 1.3673625000000003 5.406320434570312 1.4866125000000001 L 5.406320434570312 1.7708625000000002 L 5.3448204345703125 1.7708625000000002 L 5.3448204345703125 1.4911125000000003 Q 5.3448204345703125 1.4528625000000002 5.331320434570312 1.4374875000000003 Q 5.317820434570312 1.4221125000000003 5.293820434570312 1.4221125000000003 Q 5.265320434570312 1.4221125000000003 5.245820434570312 1.4513625 Q 5.2263204345703125 1.4806125000000003 5.2263204345703125 1.5301125000000002 L 5.2263204345703125 1.7708625000000002 L 5.164820434570312 1.7708625000000002 L 5.164820434570312 1.4911125000000003 Q 5.164820434570312 1.4528625000000002 5.151320434570312 1.4374875000000003 Q 5.137820434570313 1.4221125000000003 5.113820434570313 1.4221125000000003 Q 5.0853204345703125 1.4221125000000003 5.065445434570313 1.4513625 Q 5.045570434570312 1.4806125000000003 5.045570434570312 1.5301125000000002 L 5.045570434570312 1.7708625000000002 L 4.984070434570312 1.7708625000000002 L 4.984070434570312 1.3763625000000002" fill="#3682ae" fill-rule="nonzero"></path></g></g><defs><clipPath id="SvgjsClipPath1398"><path d=" M -5.0330129136302935 -0.9718650088927152 h 4.633012913630293 v 3.7145925177854306 h -4.633012913630293 Z"></path></clipPath><clipPath id="SvgjsClipPath1396834510b4-8c30-4c8e-957f-477aacd6c768"><path d=" M -5.0330129136302935 -0.9718650088927157 L -0.40000000000000036 -0.9718650088927157 L -0.40000000000000036 2.7427275088927154 L -5.0330129136302935 2.7427275088927154 Z"></path></clipPath><clipPath id="a24208d97-f7ec-4d6d-949f-58ec5886508f834510b4-8c30-4c8e-957f-477aacd6c768"><path d=" M -5.0330129136302935 2.7427275088927154 L -0.4000216096970224 2.7427275088927154 L -0.4000216096970224 -0.9718557224114215 L -5.0330129136302935 -0.9718557224114215 Z"></path></clipPath></defs></svg>